<?xml version="1.0" encoding="UTF-8"?>
<svg id="Capa_1" data-name="Capa 1" xmlns="http://www.w3.org/2000/svg" viewBox="0 0 75.08 105.13">
  <defs>
    <style>
      .cls-1 {
        fill: #e42527;
        stroke-width: 0px;
      }
    </style>
  </defs>
  <path class="cls-1" d="m53.64,105.13v-24.79c-.41.22-.72.38-1.02.55-6.58,3.8-13.16,7.59-19.73,11.41-.56.32-.95.37-1.53.03-10.15-5.89-20.32-11.76-30.49-17.61C.27,74.37,0,74.01,0,73.25c.04-11.81.05-23.62.04-35.44,0-.71.24-1.05.83-1.39,6.54-3.74,13.06-7.52,19.59-11.29.26-.15.52-.3.94-.55C14.23,20.46,7.17,16.37.01,12.24c2.48-1.44,4.87-2.82,7.26-4.2C11.8,5.43,16.32,2.83,20.84.2c.41-.24.69-.28,1.13-.03,17.51,10.13,35.04,20.25,52.56,30.37.13.07.26.15.51.3-7.13,4.12-14.18,8.19-21.37,12.35.4.24.69.42.99.59,6.53,3.77,13.05,7.54,19.59,11.29.63.36.83.76.83,1.48-.02,11.78-.02,23.56,0,35.35,0,.65-.17,1.01-.75,1.34-6.62,3.79-13.22,7.61-19.82,11.43-.23.13-.47.25-.86.46ZM21.46,24.63c-.04.23-.05.29-.05.35,0,12.05.02,24.1,0,36.14,0,.61.3.82.73,1.08,10.2,5.86,20.4,11.72,30.6,17.58.25.14.51.26.85.43.02-.24.04-.38.04-.52,0-3.73-.01-7.45.02-11.18,0-.59-.32-.76-.72-.99-6.63-3.82-13.25-7.65-19.88-11.48-.25-.14-.49-.3-.82-.5,7.15-4.13,14.2-8.2,21.38-12.35-10.78-6.23-21.42-12.37-32.16-18.57Z"/>
</svg>