<?xml version="1.0" encoding="UTF-8"?>
<svg id="Capa_1" data-name="Capa 1" xmlns="http://www.w3.org/2000/svg" viewBox="0 0 354.14 105.13">
  <defs>
    <style>
      .cls-1, .cls-2, .cls-3 {
        stroke-width: 0px;
      }

      .cls-2 {
        fill: #fff;
      }

      .cls-3 {
        fill: #e42527;
      }
    </style>
  </defs>
  <path class="cls-3" d="m53.64,105.13v-24.79c-.41.22-.72.38-1.02.55-6.58,3.8-13.16,7.59-19.73,11.41-.56.32-.95.37-1.53.03-10.15-5.89-20.32-11.76-30.49-17.61C.27,74.37,0,74.01,0,73.25c.04-11.81.05-23.62.04-35.44,0-.71.24-1.05.83-1.39,6.54-3.74,13.06-7.52,19.59-11.29.26-.15.52-.3.94-.55C14.23,20.46,7.17,16.37.01,12.24c2.48-1.44,4.87-2.82,7.26-4.2C11.8,5.43,16.32,2.83,20.84.2c.41-.24.69-.28,1.13-.03,17.51,10.13,35.04,20.25,52.56,30.37.13.07.26.15.51.3-7.13,4.12-14.18,8.19-21.37,12.35.4.24.69.42.99.59,6.53,3.77,13.05,7.54,19.59,11.29.63.36.83.76.83,1.48-.02,11.78-.02,23.56,0,35.35,0,.65-.17,1.01-.75,1.34-6.62,3.79-13.22,7.61-19.82,11.43-.23.13-.47.25-.86.46ZM21.46,24.63c-.04.23-.05.29-.05.35,0,12.05.02,24.1,0,36.14,0,.61.3.82.73,1.08,10.2,5.86,20.4,11.72,30.6,17.58.25.14.51.26.85.43.02-.24.04-.38.04-.52,0-3.73-.01-7.45.02-11.18,0-.59-.32-.76-.72-.99-6.63-3.82-13.25-7.65-19.88-11.48-.25-.14-.49-.3-.82-.5,7.15-4.13,14.2-8.2,21.38-12.35-10.78-6.23-21.42-12.37-32.16-18.57Z"/>
  <path class="cls-2" d="m297.83,82.25c-1.02.72-1.59,1.44-2.17,1.44-.49,0-.99-.81-1.49-1.26.51-.47.97-1.2,1.55-1.31.47-.09,1.09.55,2.1,1.14Z"/>
  <g>
    <path class="cls-1" d="m106.07,63.65v-26.26h4.88v22.13h13.73v4.13h-18.61Z"/>
    <path class="cls-1" d="m128.54,63.65v-26.26h4.88v26.26h-4.88Z"/>
    <path class="cls-1" d="m140.5,63.65v-26.26h4.01l16.47,20.22h-1.99v-20.22h4.84v26.26h-4.01l-16.47-20.22h1.99v20.22h-4.84Z"/>
    <path class="cls-1" d="m170.89,63.65v-26.26h4.88v26.26h-4.88Zm4.35-6.19l-.26-5.78,13.77-14.29h5.48l-11.44,12.15-2.7,2.96-4.84,4.95Zm13.96,6.19l-10.05-11.97,3.23-3.56,12.53,15.53h-5.7Z"/>
    <path class="cls-3" d="m209.56,64.02c-2.05,0-3.93-.33-5.65-.99-1.71-.66-3.21-1.6-4.48-2.81-1.28-1.21-2.26-2.64-2.96-4.29-.7-1.65-1.05-3.45-1.05-5.4s.35-3.75,1.05-5.4c.7-1.65,1.69-3.08,2.98-4.3,1.29-1.21,2.79-2.15,4.52-2.81s3.61-.99,5.66-.99c2.23,0,4.23.36,6.02,1.09,1.79.73,3.29,1.79,4.52,3.19l-3.08,3c-1.03-1.02-2.13-1.78-3.32-2.27-1.19-.49-2.5-.73-3.92-.73s-2.65.23-3.83.68-2.19,1.09-3.04,1.91c-.85.83-1.51,1.8-1.97,2.93s-.69,2.36-.69,3.71.23,2.55.69,3.68c.46,1.12,1.12,2.11,1.97,2.94.85.84,1.85,1.48,3,1.93s2.43.68,3.83.68c1.3,0,2.56-.21,3.77-.62,1.21-.41,2.37-1.11,3.47-2.08l2.78,3.64c-1.38,1.1-2.97,1.93-4.78,2.49-1.81.56-3.65.84-5.5.84Zm5.67-3.98v-9.83h4.61v10.47l-4.61-.64Z"/>
    <path class="cls-3" d="m222.54,63.65l11.82-26.26h4.8l11.86,26.26h-5.1l-10.17-23.67h1.95l-10.13,23.67h-5.03Zm5.44-6.08l1.31-3.83h14.18l1.31,3.83h-16.81Z"/>
    <path class="cls-3" d="m254.35,63.65v-26.26h4.01l11.48,19.17h-2.1l11.29-19.17h4.01l.04,26.26h-4.61l-.04-19.02h.98l-9.6,16.02h-2.18l-9.75-16.02h1.12v19.02h-4.65Z"/>
    <path class="cls-3" d="m295.05,59.56h14.82v4.09h-19.69v-26.26h19.17v4.09h-14.29v18.08Zm-.38-11.25h13.05v4.01h-13.05v-4.01Z"/>
    <path class="cls-1" d="m315.31,63.65v-26.26h4.88v26.26h-4.88Z"/>
    <path class="cls-1" d="m327.28,63.65v-26.26h4.01l16.47,20.22h-1.99v-20.22h4.84v26.26h-4.01l-16.47-20.22h1.99v20.22h-4.84Z"/>
  </g>
</svg>